<svg xmlns="http://www.w3.org/2000/svg" xmlns:xlink="http://www.w3.org/1999/xlink" version="1.1" width="100" height="100" viewBox="0,0,1000,1000">
    <g transform = "translate(0,150)" fill="rgb(200,200,200)">
        <path
            d="M877,-114 C877,-114,913,-79,913,-79 C913,-79,949,-43,949,-43 C949,-43,984,-7,984,-7 C984,-7,1020,29,1020,29 C1020,29,984,64,984,64 C984,64,949,100,949,100 C949,100,913,136,913,136 C913,136,877,171,877,171 C877,171,841,207,841,207 C841,207,806,171,806,171 C806,171,770,136,770,136 C770,136,734,100,734,100 C734,100,699,64,699,64 C699,64,663,29,663,29 C663,29,699,-7,699,-7 C699,-7,734,-43,734,-43 C734,-43,770,-79,770,-79 C770,-79,806,-114,806,-114 C806,-114,841,-150,841,-150 C841,-150,877,-114,877,-114Z M591,171 C591,171,734,314,734,314 C734,314,699,350,699,350 C699,350,663,386,663,386 C663,386,627,421,627,421 C627,421,591,457,591,457 C591,457,556,493,556,493 C556,493,520,529,520,529 C520,529,484,564,484,564 C484,564,449,600,449,600 C449,600,413,636,413,636 C413,636,377,671,377,671 C377,671,341,707,341,707 C341,707,306,743,306,743 C306,743,270,779,270,779 C270,779,234,814,234,814 C234,814,199,850,199,850 C199,850,56,850,56,850 C56,850,20,814,20,814 C20,814,20,671,20,671 C20,671,56,636,56,636 C56,636,91,600,91,600 C91,600,127,564,127,564 C127,564,163,529,163,529 C163,529,199,493,199,493 C199,493,234,457,234,457 C234,457,270,421,270,421 C270,421,306,386,306,386 C306,386,341,350,341,350 C341,350,377,314,377,314 C377,314,413,279,413,279 C413,279,449,243,449,243 C449,243,484,207,484,207 C484,207,520,171,520,171 C520,171,556,136,556,136 C556,136,591,171,591,171Z M234,529 C234,529,127,636,127,636 C127,636,91,671,91,671 C91,671,91,743,91,743 C91,743,127,779,127,779 C127,779,199,779,199,779 C199,779,234,743,234,743 C234,743,377,600,377,600 C377,600,306,529,306,529 C306,529,270,493,270,493 C270,493,234,529,234,529Z"
        />
    </g>
</svg>
