<svg version="1.1" xmlns="http://www.w3.org/2000/svg" xmlns:xlink="http://www.w3.org/1999/xlink" width="100" height="100" viewBox="0,0,1000,1000">
    <g transform = "translate(0,150)" fill="rgb(200,200,200)">
        <path
            d="M515,610 C515,610,515,610,515,610 C487,609.333,462.333,619.667,441,641 C419.667,662.333,409.333,687,410,715 C410.667,743,421,767.333,441,788 C461,808.667,485.667,819,515,819 C515,819,880,819,880,819 C880,819,880,819,880,819 C908,818.333,932.333,808,953,788 C973.667,768,983.833,743.667,983.5,715 C983.167,686.333,973,661.667,953,641 C933,620.333,908.667,610,880,610 C880,610,515,610,515,610Z M515,246 C515,246,515,246,515,246 C487,246,462.333,256.333,441,277 C419.667,297.667,409.333,322,410,350 C410.667,378,421,402.333,441,423 C461,443.667,485.667,454,515,454 C515,454,880,454,880,454 C880,454,880,454,880,454 C907.333,454,931.667,443.667,953,423 C974.333,402.333,984.667,378,984,350 C983.333,322,973,297.667,953,277 C933,256.333,908.667,246,880,246 C880,246,515,246,515,246Z M515,-119 C515,-119,515,-119,515,-119 C485.667,-118.333,461,-108,441,-88 C421,-68,410.667,-43.667,410,-15 C409.333,13.667,419.667,38.333,441,59 C462.333,79.667,487,90,515,90 C515,90,880,90,880,90 C880,90,880,90,880,90 C908,89.333,932.333,79,953,59 C973.667,39,984,14.333,984,-15 C984,-15,984,-15,984,-15 C983.333,-43,973,-67.333,953,-88 C933,-108.667,908.667,-119,880,-119 C880,-119,515,-119,515,-119Z M20,715 C20,801.667,63.333,845,150,845 C236.667,845,280,801.667,280,715 C280,628.333,236.667,585,150,585 C63.333,585,20,628.333,20,715 C20,715,20,715,20,715Z M20,350 C20,436.667,63.333,480,150,480 C236.667,480,280,436.667,280,350 C280,263.333,236.667,220,150,220 C63.333,220,20,263.333,20,350 C20,350,20,350,20,350Z M20,-15 C20,71.667,63.333,115,150,115 C236.667,115,280,71.667,280,-15 C280,-101.667,236.667,-145,150,-145 C63.333,-145,20,-101.667,20,-15 C20,-15,20,-15,20,-15Z"
        />
    </g>
</svg>
