<svg xmlns="http://www.w3.org/2000/svg" xmlns:xlink="http://www.w3.org/1999/xlink" version="1.1" width="100" height="100" viewBox="0,0,1000,1000">
    <g transform="translate(200,150)" fill="rgb(200,200,200)">
        <path
            d="M124,38 C94.667,38,70,48,50,68 C30,88,20,112.667,20,142 C20,142,20,560,20,560 C20,560,20,560,20,560 C19.333,589.333,29.333,613.667,50,633 C70.667,652.333,95.333,662.333,124,663 C152.667,663.667,177.333,653.667,198,633 C218.667,612.333,229,588,229,560 C229,560,229,142,229,142 C229,142,229,142,229,142 C228.333,114,218,89.667,198,69 C178,48.333,153.333,38,124,38 C124,38,124,38,124,38Z M489,38 C459.667,38,435,48,415,68 C395,88,385,112.667,385,142 C385,142,385,560,385,560 C385,560,385,560,385,560 C385,588.667,395,613,415,633 C435,653,459.667,663,489,663 C518.333,663,543,653,563,633 C583,613,593,588.667,593,560 C593,560,593,142,593,142 C593,142,593,142,593,142 C593,112.667,583,88,563,68 C543,48,518.333,38,489,38 C489,38,489,38,489,38Z"
        />
    </g>
</svg>
