<?xml version="1.0" encoding="iso-8859-1"?>
<!-- Generator: Adobe Illustrator 19.0.0, SVG Export Plug-In . SVG Version: 6.00 Build 0)  -->
<svg version="1.1" id="Capa_1" xmlns="http://www.w3.org/2000/svg" xmlns:xlink="http://www.w3.org/1999/xlink" x="0px" y="0px"
	 viewBox="0 0 512 512" style="enable-background:new 0 0 512 512;" xml:space="preserve">
<g>
	<g>
		<path fill="rgb(235, 52, 52)" d="M181.333,0H74.667c-17.643,0-32,14.357-32,32v448c0,17.643,14.357,32,32,32h106.667c17.643,0,32-14.357,32-32V32
			C213.333,14.357,198.976,0,181.333,0z M192,480c0,5.867-4.779,10.667-10.667,10.667H74.667C68.779,490.667,64,485.867,64,480V32
			c0-5.867,4.779-10.667,10.667-10.667h106.667c5.888,0,10.667,4.8,10.667,10.667V480z"/>
	</g>
</g>
<g>
	<g>
		<path fill="rgb(235, 52, 52)" d="M437.333,0H330.667c-17.643,0-32,14.357-32,32v448c0,17.643,14.357,32,32,32h106.667c17.643,0,32-14.357,32-32V32
			C469.333,14.357,454.976,0,437.333,0z M448,480c0,5.867-4.779,10.667-10.667,10.667H330.667c-5.888,0-10.667-4.8-10.667-10.667V32
			c0-5.867,4.779-10.667,10.667-10.667h106.667c5.888,0,10.667,4.8,10.667,10.667V480z"/>
	</g>
</g>
<g>
</g>
<g>
</g>
<g>
</g>
<g>
</g>
<g>
</g>
<g>
</g>
<g>
</g>
<g>
</g>
<g>
</g>
<g>
</g>
<g>
</g>
<g>
</g>
<g>
</g>
<g>
</g>
<g>
</g>
</svg>
