<svg xmlns="http://www.w3.org/2000/svg" xmlns:xlink="http://www.w3.org/1999/xlink" version="1.1" width="100" height="100" viewBox="0,0,1000,1000">
    <g transform = "translate(200,150)" fill="rgb(200,200,200)">
        <path
            d="M541,350 C541,350,198,15,198,15 C198,15,198,15,198,15 C178,-5,153.333,-15,124,-15 C124,-15,124,-15,124,-15 C96,-14.333,71.667,-4,51,16 C30.333,36,20,60.667,20,90 C20,90,20,610,20,610 C20,610,20,610,20,610 C20.667,638.667,31,663.333,51,684 C71,704.667,95.5,715,124.5,715 C153.5,715,178,705,198,685 C198,685,541,350,541,350Z"
        />
    </g>
</svg>
